<svg id="Réteg_1" data-name="Réteg 1" xmlns="http://www.w3.org/2000/svg" viewBox="0 0 15.08 15.08"><defs><style>.cls-1{fill:#fff;}.cls-2{fill:#f6b9c4;}.cls-3{fill:#ec7d8a;}</style></defs><path class="cls-1" d="M.93,6.33a.25.25,0,1,0,.24.25A.25.25,0,0,0,.93,6.33ZM1,.49A1,1,0,0,0,1,2.58a1,1,0,0,0,1-1A1,1,0,0,0,1,.49ZM1,2.22A.69.69,0,1,1,1,.85a.69.69,0,0,1,.68.68A.68.68,0,0,1,1,2.22Zm.77,11a.25.25,0,1,0,.24.24A.25.25,0,0,0,1.81,13.19ZM3.51,0a.25.25,0,0,0-.25.25A.25.25,0,1,0,3.51,0ZM6.6,5a.25.25,0,1,0,.25.25A.25.25,0,0,0,6.6,5Zm3.08.88a.25.25,0,1,0,0,.49.25.25,0,0,0,0-.49ZM12.77.16a.25.25,0,0,0-.24.25.25.25,0,1,0,.49,0A.25.25,0,0,0,12.77.16Zm.85,12.18a.25.25,0,0,0,0,.49.25.25,0,1,0,0-.49ZM12.51,8.07a.14.14,0,0,0,0-.09V5.13A4.82,4.82,0,0,0,7.7.33a4.78,4.78,0,0,0-4.8,4.8V8a.06.06,0,0,0,0,0,1.8,1.8,0,0,0-1.16,3.06,1.7,1.7,0,0,0,1.17.51,1.23,1.23,0,0,0,1,1V13A2.08,2.08,0,0,0,6,15.08a2,2,0,0,0,2-2v-2.6h.36c.11,0,.19-.09.16-.17V8.55a.17.17,0,0,0-.16-.16V7.51a.44.44,0,0,0-.14-.35A.49.49,0,0,0,7.89,7a.52.52,0,0,0-.52.52v.85h0a.17.17,0,0,0-.16.16v1.73a.18.18,0,0,0,.16.17H7.7v2.6a1.65,1.65,0,0,1-.49,1.21A1.78,1.78,0,0,1,6,14.75,1.74,1.74,0,0,1,4.27,13v-.36a1.19,1.19,0,0,0,1.05-1.17V8.22A1.22,1.22,0,0,0,4.11,7a1.24,1.24,0,0,0-.85.35l0,0V6.69h.25a.79.79,0,0,0,.79-.8V5.21h.25a.85.85,0,0,0,.82-.66,2.42,2.42,0,0,1,.85-1.4,2.37,2.37,0,0,1,1.57-.57,2.49,2.49,0,0,1,2.41,2,.83.83,0,0,0,.82.66h.14v.68a.8.8,0,0,0,.79.8h.25v.68A1.24,1.24,0,0,0,11.32,7a1.22,1.22,0,0,0-1.21,1.2v3.24a1.22,1.22,0,0,0,1.21,1.21,1.2,1.2,0,0,0,1.19-1,1.93,1.93,0,0,0,1.22-.51,1.76,1.76,0,0,0,.52-1.26A1.79,1.79,0,0,0,12.51,8.07ZM11,4.88a.49.49,0,0,1-.49-.38A2.84,2.84,0,0,0,6,2.88,2.94,2.94,0,0,0,5,4.5a.49.49,0,0,1-.49.38H4.29a3.43,3.43,0,0,1,1-2.17,3.37,3.37,0,0,1,2.41-1,3.42,3.42,0,0,1,3.42,3.18ZM4.11,7.37A.86.86,0,0,1,5,8.22v3.27a.86.86,0,0,1-.85.85.84.84,0,0,1-.84-.8l0,0a.11.11,0,0,0,0-.08V8.29a.09.09,0,0,0,0-.07.14.14,0,0,0,0-.06.83.83,0,0,1,.24-.54A.86.86,0,0,1,4.11,7.37Zm7.21,5a.86.86,0,0,1-.85-.85V8.22a.85.85,0,0,1,1.7,0v3.27A.86.86,0,0,1,11.32,12.34Zm2.91-8.23a.69.69,0,1,0,.68.69A.68.68,0,0,0,14.23,4.11Zm-.36.69a.37.37,0,0,1,.36-.36.36.36,0,0,1,.35.36.35.35,0,0,1-.35.35A.36.36,0,0,1,13.87,4.8Zm1,1.89a.25.25,0,1,0,.25.25A.25.25,0,0,0,14.83,6.69Z"/><g id="_544_Audio_Computer_Hardware_Headphone" data-name="544, Audio, Computer, Hardware, Headphone"><path class="cls-1" d="M14.22,4.28a.52.52,0,1,0,.53.52A.52.52,0,0,0,14.22,4.28Zm0,.87a.36.36,0,0,1-.36-.35.37.37,0,0,1,.36-.36.36.36,0,0,1,.35.36A.35.35,0,0,1,14.23,5.15Z"/><path class="cls-1" d="M1,.68a.84.84,0,0,0-.85.85.85.85,0,0,0,1.7,0A.86.86,0,0,0,1,.68ZM1,2.22A.69.69,0,1,1,1,.85a.69.69,0,0,1,.68.68A.68.68,0,0,1,1,2.22Z"/><path class="cls-1" d="M11.28,4.88a3.51,3.51,0,0,0-.63-1.8,1.94,1.94,0,0,0-.21-.27A3.63,3.63,0,0,0,10,2.33,2.89,2.89,0,0,0,9.45,2l-.31-.15-.32-.11-.24-.07a3.41,3.41,0,0,0-.85-.09,3.62,3.62,0,0,0-2.55,1,3.48,3.48,0,0,0-1,2.29.76.76,0,0,0,0,.15h.33a.66.66,0,0,0,.65-.52A2.51,2.51,0,0,1,6,3,2.52,2.52,0,0,1,7.7,2.41a2.66,2.66,0,0,1,2.61,2.11A.64.64,0,0,0,11,5h.33A.86.86,0,0,0,11.28,4.88Zm-.26,0a.49.49,0,0,1-.49-.38A2.84,2.84,0,0,0,6,2.88,2.94,2.94,0,0,0,5,4.5a.49.49,0,0,1-.49.38H4.29a3.43,3.43,0,0,1,1-2.17,3.37,3.37,0,0,1,2.41-1,3.42,3.42,0,0,1,3.42,3.18Z"/><path class="cls-2" d="M12.33,5.65V6.5h-.41a.64.64,0,0,1-.63-.63V5.65Z"/><path class="cls-2" d="M4.11,5.65v.24a.65.65,0,0,1-.63.64H3.06V5.65Z"/><path class="cls-2" d="M11.29,5A3.6,3.6,0,0,0,7.7,1.53,3.71,3.71,0,0,0,5.15,2.58,3.52,3.52,0,0,0,4.11,5v.63H3.06V5.13A4.64,4.64,0,0,1,4.41,1.86,4.57,4.57,0,0,1,7.67.52a4.65,4.65,0,0,1,4.64,4.63v.5H11.26V5.13C11.32,5.1,11.29,5.07,11.29,5Z"/><path class="cls-2" d="M3.09,8.23v3.26H3A1.71,1.71,0,0,1,1.86,11,1.63,1.63,0,0,1,3,8.25h.08Z"/><polygon class="cls-2" points="8.38 8.55 8.38 10.28 7.89 10.28 7.37 10.28 7.37 8.55 7.53 8.55 8.22 8.55 8.38 8.55"/><path class="cls-1" d="M8.22,7.54v1H7.53v-1a.37.37,0,0,1,.36-.36.32.32,0,0,1,.25.11A.44.44,0,0,1,8.22,7.54Z"/><path class="cls-1" d="M12.33,8.07a1.06,1.06,0,0,0-.16-.44l-.11-.15a1.07,1.07,0,0,0-.74-.3,1,1,0,0,0-1,1v3.27a1,1,0,0,0,1,1,1.05,1.05,0,0,0,1-.88.86.86,0,0,0,0-.16V8.22A.76.76,0,0,0,12.33,8.07Zm-1,4.27a.86.86,0,0,1-.85-.85V8.22a.85.85,0,0,1,1.7,0v3.27A.86.86,0,0,1,11.32,12.34Z"/><path class="cls-2" d="M12.41,8.23A1.62,1.62,0,0,1,14,9.84,1.75,1.75,0,0,1,13.57,11a1.62,1.62,0,0,1-1.16.47h-.08V8.23Z"/><path class="cls-1" d="M4.11,7.18a1,1,0,0,0-.74.3l-.14.18a1.12,1.12,0,0,0-.14.4.68.68,0,0,0,0,.14v3.29a.44.44,0,0,0,0,.16,1,1,0,0,0,.85.86.47.47,0,0,0,.17,0,.44.44,0,0,0,.16,0,1,1,0,0,0,.88-1V8.22A1,1,0,0,0,4.11,7.18ZM5,11.49a.86.86,0,0,1-.85.85.84.84,0,0,1-.84-.8l0,0a.11.11,0,0,0,0-.08V8.29a.09.09,0,0,0,0-.07.14.14,0,0,0,0-.06.83.83,0,0,1,.24-.54A.85.85,0,0,1,5,8.22Z"/><path class="cls-3" d="M15.08,6.94a.25.25,0,1,1-.25-.25A.25.25,0,0,1,15.08,6.94Z"/><path class="cls-3" d="M13.87,12.58a.25.25,0,1,1-.49,0,.25.25,0,0,1,.49,0Z"/><path class="cls-3" d="M13,.41a.25.25,0,1,1-.49,0,.25.25,0,1,1,.49,0Z"/><path class="cls-3" d="M9.92,6.09a.25.25,0,0,1-.49,0,.25.25,0,1,1,.49,0Z"/><path class="cls-3" d="M6.85,5.21A.25.25,0,1,1,6.6,5,.25.25,0,0,1,6.85,5.21Z"/><path class="cls-3" d="M3.75.25a.25.25,0,0,1-.49,0,.25.25,0,1,1,.49,0Z"/><path class="cls-3" d="M2.05,13.43a.25.25,0,1,1-.24-.24A.25.25,0,0,1,2.05,13.43Z"/><path class="cls-3" d="M1.17,6.58a.25.25,0,1,1-.24-.25A.25.25,0,0,1,1.17,6.58Z"/><path class="cls-3" d="M14.25,9.87a1.76,1.76,0,0,1-.52,1.26,1.93,1.93,0,0,1-1.22.51h-.18a.17.17,0,0,1-.16-.16.18.18,0,0,1,.17-.17h.19a1.42,1.42,0,0,0,.93-.43,1.44,1.44,0,0,0-.93-2.48H12.3a.18.18,0,0,1-.1-.16.16.16,0,0,1,.13-.15h.18A1.79,1.79,0,0,1,14.25,9.87Z"/><path class="cls-3" d="M12.33,5.81h-1a.17.17,0,0,1-.16-.16.18.18,0,0,1,.16-.17h1a.19.19,0,0,1,.17.17A.18.18,0,0,1,12.33,5.81Z"/><path class="cls-3" d="M4.11,5.81H3.06a.17.17,0,0,1-.16-.16.18.18,0,0,1,.16-.17H4.11a.18.18,0,0,1,.16.17A.17.17,0,0,1,4.11,5.81Z"/><path class="cls-3" d="M12.5,5.13v3.1a.18.18,0,0,1-.14.16H12.3a.17.17,0,0,1-.13-.16V5.13A4.46,4.46,0,0,0,4.55,2,4.41,4.41,0,0,0,3.23,5.13V8s0,0,0,.06a.17.17,0,0,1-.15.11.18.18,0,0,1-.15-.1v0h0a.06.06,0,0,1,0,0V5.13a4.8,4.8,0,0,1,9.6,0Z"/><path class="cls-3" d="M12.34,6.69h-.42a.8.8,0,0,1-.79-.8V5a.86.86,0,0,0,0-.16A3.42,3.42,0,0,0,7.7,1.7a3.37,3.37,0,0,0-2.41,1,3.43,3.43,0,0,0-1,2.17.88.88,0,0,0,0,.16v.85a.79.79,0,0,1-.79.8H3.07a.17.17,0,1,1,0-.33h.41a.43.43,0,0,0,.44-.44V5a3.76,3.76,0,0,1,6.39-2.6A3.56,3.56,0,0,1,11.42,4.9a.66.66,0,0,1,0,.14v.88a.43.43,0,0,0,.44.44h.47a.18.18,0,0,1,.1.15A.11.11,0,0,1,12.34,6.69Z"/><path class="cls-3" d="M11.51,5a.26.26,0,0,1-.08.13.21.21,0,0,1-.11,0H11a.83.83,0,0,1-.82-.66,2.49,2.49,0,0,0-2.41-2,2.37,2.37,0,0,0-1.57.57,2.42,2.42,0,0,0-.85,1.4.85.85,0,0,1-.82.66H4.19a.11.11,0,0,1-.08,0A.16.16,0,0,1,4,5a.17.17,0,0,1,.09-.14h.4A.49.49,0,0,0,5,4.5,2.94,2.94,0,0,1,6,2.88,2.84,2.84,0,0,1,10.53,4.5a.49.49,0,0,0,.49.38h.33l.07,0A.17.17,0,0,1,11.51,5Z"/><path class="cls-3" d="M12.51,8.07a.14.14,0,0,0,0-.09,1.15,1.15,0,0,0-.33-.61A1.24,1.24,0,0,0,11.32,7a1.22,1.22,0,0,0-1.21,1.2v3.24a1.22,1.22,0,0,0,1.21,1.21,1.2,1.2,0,0,0,1.19-1,.77.77,0,0,0,0-.15V8.22A.39.39,0,0,0,12.51,8.07Zm-1.19,4.27a.86.86,0,0,1-.85-.85V8.22a.85.85,0,0,1,1.7,0v3.27A.86.86,0,0,1,11.32,12.34Z"/><path class="cls-3" d="M3.26,11.41a.11.11,0,0,1,0,.08l0,0a.23.23,0,0,1-.18.11H2.92a1.7,1.7,0,0,1-1.17-.51A1.8,1.8,0,0,1,2.91,8.07h.21a.19.19,0,0,1,.1,0l0,.07a.14.14,0,0,1,0,.06.09.09,0,0,1,0,.07.21.21,0,0,1-.17.1H2.9A1.45,1.45,0,0,0,2,10.88a1.39,1.39,0,0,0,.9.43h.22A.18.18,0,0,1,3.26,11.41Z"/><path class="cls-3" d="M4.11,7a1.24,1.24,0,0,0-.85.35l0,0a1.1,1.1,0,0,0-.31.66h0v0a.25.25,0,0,0,0,.12v3.26a.78.78,0,0,0,0,.16,1.23,1.23,0,0,0,1,1h.33a1.19,1.19,0,0,0,1.05-1.17V8.22A1.22,1.22,0,0,0,4.11,7ZM5,11.49a.86.86,0,0,1-.85.85.84.84,0,0,1-.84-.8.09.09,0,0,1,0,0V8.22a.13.13,0,0,1,0-.06.83.83,0,0,1,.24-.54A.85.85,0,0,1,5,8.22Z"/><path class="cls-3" d="M8,10.28v2.77a2,2,0,0,1-2,2A2.08,2.08,0,0,1,3.94,13V12.5a.18.18,0,0,1,.17-.16.17.17,0,0,1,.16.16V13A1.74,1.74,0,0,0,6,14.75a1.78,1.78,0,0,0,1.21-.49,1.65,1.65,0,0,0,.49-1.21V10.31a0,0,0,0,1,0,0,.17.17,0,0,1,.16-.14A.19.19,0,0,1,8,10.28Z"/><path class="cls-3" d="M8.55,8.55v1.73c0,.08-.05.17-.16.17H7.34a.18.18,0,0,1-.16-.17V8.55a.17.17,0,0,1,.16-.16h.2a.17.17,0,0,1,.16.16v0a.18.18,0,0,1-.16.14v1.37h.68V8.72a.16.16,0,0,1-.15-.14,0,0,0,0,1,0,0,.17.17,0,0,1,.16-.16h.17A.17.17,0,0,1,8.55,8.55Z"/><path class="cls-3" d="M8.25,7.16A.49.49,0,0,0,7.89,7a.52.52,0,0,0-.52.52v1a.18.18,0,0,0,.17.17h.68a.18.18,0,0,0,.16-.16.06.06,0,0,0,0,0v-1A.44.44,0,0,0,8.25,7.16Zm-.19.38v.85H7.73V7.54a.18.18,0,0,1,.16-.17A.17.17,0,0,1,8,7.43.14.14,0,0,1,8.06,7.54Z"/><path class="cls-3" d="M1,.49A1,1,0,0,0,1,2.58a1,1,0,0,0,1-1A1,1,0,0,0,1,.49ZM1,2.22A.69.69,0,1,1,1,.85a.69.69,0,0,1,.68.68A.68.68,0,0,1,1,2.22Z"/><path class="cls-3" d="M14.23,4.11a.69.69,0,1,0,.68.69A.68.68,0,0,0,14.23,4.11Zm-.36.69a.37.37,0,0,1,.36-.36.36.36,0,0,1,.35.36.35.35,0,0,1-.35.35A.36.36,0,0,1,13.87,4.8Z"/></g></svg>