<svg id="Réteg_1" data-name="Réteg 1" xmlns="http://www.w3.org/2000/svg" viewBox="0 0 15.31 14.95"><defs><style>.cls-1{fill:#fff;}.cls-2{fill:#f6b9c4;}.cls-3{fill:#ec7d8a;}</style></defs><path class="cls-1" d="M1,14a.26.26,0,0,1-.25.26A.26.26,0,0,1,.52,14a.24.24,0,0,1,.25-.24A.24.24,0,0,1,1,14Z"/><path class="cls-1" d="M.86,4.32a.86.86,0,1,0,.85.86A.86.86,0,0,0,.86,4.32Zm0,1.38a.5.5,0,0,1-.52-.52.52.52,0,0,1,.52-.52.52.52,0,0,1,.52.52A.5.5,0,0,1,.86,5.7Z"/><path class="cls-1" d="M.88.78A.26.26,0,0,1,1.13.52a.26.26,0,0,1,.25.26A.25.25,0,0,1,1.13,1,.25.25,0,0,1,.88.78Z"/><path class="cls-1" d="M3.44,4.05a.25.25,0,1,1,.25.25A.25.25,0,0,1,3.44,4.05Z"/><path class="cls-1" d="M7.37,11.61a.25.25,0,0,1-.24.26.26.26,0,0,1-.25-.26.25.25,0,0,1,.25-.24A.24.24,0,0,1,7.37,11.61Z"/><path class="cls-1" d="M9.79,14.71a.24.24,0,0,1-.48,0,.24.24,0,1,1,.48,0Z"/><path class="cls-1" d="M9.71,2.42a.26.26,0,0,1,.26.25.26.26,0,0,1-.26.25.24.24,0,0,1-.24-.25A.25.25,0,0,1,9.71,2.42Z"/><path class="cls-1" d="M12.05,5.54H9.41a.11.11,0,0,0-.08,0h-.9V5.18a.68.68,0,0,0-.2-.5.78.78,0,0,0-.33-.16V3.94a1.4,1.4,0,0,0-1.4-1.4H3.78a.86.86,0,0,1-.86-.86.82.82,0,0,1,.25-.6A.85.85,0,0,1,3.78.83h9.79a.18.18,0,0,0,.16-.17A.17.17,0,0,0,13.57.5H3.78A1.23,1.23,0,0,0,2.56,1.71,1.23,1.23,0,0,0,3.78,2.92H6.5A1.08,1.08,0,0,1,7.57,4v.52a.67.67,0,0,0-.52.66v.33H3.5A2.12,2.12,0,0,0,1.38,7.63v4.56a2.23,2.23,0,0,0,2.23,2.24,2.25,2.25,0,0,0,1.57-.66,2.11,2.11,0,0,0,.66-1.58V10.83a1.39,1.39,0,0,0,.8-.4,1.28,1.28,0,0,0,.41-1V9.11H8.43v.36a1.37,1.37,0,0,0,1.2,1.38v1.38a2.22,2.22,0,0,0,2.24,2.22,2.54,2.54,0,0,0,1.64-.62,2.15,2.15,0,0,0,.66-1.58V7.65A2.11,2.11,0,0,0,12.05,5.54ZM5.54,11.89H1.74v-.36h3.8ZM4.63,7.6A.36.36,0,1,1,5,8,.36.36,0,0,1,4.63,7.6ZM5,9a.36.36,0,0,1,.36.36.36.36,0,1,1-.71,0A.36.36,0,0,1,5,9ZM2.92,7.6a.36.36,0,0,1,.36-.36.36.36,0,1,1,0,.72A.36.36,0,0,1,2.92,7.6ZM3.28,9a.36.36,0,0,1,.36.36.37.37,0,0,1-.36.36.36.36,0,0,1-.36-.36A.36.36,0,0,1,3.28,9ZM7.21,5.87h1a.14.14,0,0,0,.09,0h.79v.69H6.39V5.84h.74Zm5,2.26h.5a.23.23,0,0,1,.16,0,.49.49,0,0,1,.06.17.22.22,0,0,1-.22.22h-.5a.17.17,0,0,0-.16.16v.5a.19.19,0,0,1-.06.16.82.82,0,0,1-.16.06.21.21,0,0,1-.22-.22v-.5a.18.18,0,0,0-.18-.16h-.48a.22.22,0,0,1-.18-.06.58.58,0,0,1-.05-.16.22.22,0,0,1,.23-.22h.48A.19.19,0,0,0,11.57,8V7.47a.25.25,0,0,1,0-.17.43.43,0,0,1,.18-.06.23.23,0,0,1,.22.23V8A.18.18,0,0,0,12.17,8.13Zm1.66,3.76H10v-.36h3.81Z"/><path class="cls-1" d="M14.09,2.07a1.21,1.21,0,0,0,0,2.42,1.23,1.23,0,0,0,1.22-1.21A1.23,1.23,0,0,0,14.09,2.07Zm0,2.06a.85.85,0,0,1-.84-.85.86.86,0,0,1,.84-.86.86.86,0,1,1,0,1.71Z"/><path class="cls-1" d="M15.14,6.8a.25.25,0,0,1-.25.25.24.24,0,0,1-.24-.25.25.25,0,0,1,.24-.25A.25.25,0,0,1,15.14,6.8Z"/><path class="cls-1" d="M14.65.25A.25.25,0,0,1,14.89,0a.25.25,0,0,1,.25.25.25.25,0,0,1-.25.25A.25.25,0,0,1,14.65.25Z"/><g id="_530_Control_Pad_Game_Pad_Remote" data-name="530, Control Pad, Game Pad, Remote"><path class="cls-2" d="M12,5.7H3.47v0A1.92,1.92,0,0,0,1.54,7.6v4.63a2.09,2.09,0,0,0,2.07,2.06,2,2,0,0,0,2.06-2.06V10.69a1.23,1.23,0,0,0,.86-.36,1.2,1.2,0,0,0,.35-.86V9H8.62v.52a1.23,1.23,0,0,0,1.21,1.22v1.54a2.08,2.08,0,0,0,2.06,2.06,2,2,0,0,0,1.46-.6,2.06,2.06,0,0,0,.6-1.46V7.63A1.9,1.9,0,0,0,12,5.7ZM3.28,8a.36.36,0,1,1,0-.72.36.36,0,1,1,0,.72Zm0,1a.36.36,0,0,1,.36.36.37.37,0,0,1-.36.36.36.36,0,0,1-.36-.36A.36.36,0,0,1,3.28,9ZM5,9a.36.36,0,0,1,.36.36.36.36,0,1,1-.71,0A.36.36,0,0,1,5,9ZM5,8a.36.36,0,1,1,.36-.36A.36.36,0,0,1,5,8Zm7.19.17h.5a.23.23,0,0,1,.16,0,.49.49,0,0,1,.06.17.22.22,0,0,1-.22.22h-.5a.17.17,0,0,0-.16.16v.5a.19.19,0,0,1-.06.16.82.82,0,0,1-.16.06.21.21,0,0,1-.22-.22v-.5a.18.18,0,0,0-.18-.16h-.48a.22.22,0,0,1-.18-.06.58.58,0,0,1-.05-.16.22.22,0,0,1,.23-.22h.48A.19.19,0,0,0,11.57,8V7.47a.25.25,0,0,1,0-.17.43.43,0,0,1,.18-.06.23.23,0,0,1,.22.23V8A.18.18,0,0,0,12.17,8.13ZM6.39,5.84h.74l.08,0h1a.14.14,0,0,0,.09,0h.79v.69H6.39Zm-.85,6.05H1.74v-.36h3.8ZM10,11.53h3.81v.36H10Z"/><path class="cls-1" d="M13,8.07A.42.42,0,0,0,12.69,8h-.5V7.47a.39.39,0,0,0-.66-.28.42.42,0,0,0-.1.28V8h-.5a.38.38,0,0,0-.38.39.44.44,0,0,0,.1.27.48.48,0,0,0,.28.11h.5v.5a.37.37,0,0,0,.38.38.48.48,0,0,0,.28-.11.44.44,0,0,0,.1-.27v-.5h.5a.37.37,0,0,0,.38-.38A.35.35,0,0,0,13,8.07Zm-.3.5h-.5a.17.17,0,0,0-.16.16v.5a.19.19,0,0,1-.06.16.82.82,0,0,1-.16.06.21.21,0,0,1-.22-.22v-.5a.18.18,0,0,0-.18-.16h-.48a.22.22,0,0,1-.18-.06.58.58,0,0,1-.05-.16.22.22,0,0,1,.23-.22h.48A.19.19,0,0,0,11.57,8V7.47a.25.25,0,0,1,0-.17.43.43,0,0,1,.18-.06.23.23,0,0,1,.22.23V8a.18.18,0,0,0,.16.17h.5a.23.23,0,0,1,.16,0,.49.49,0,0,1,.06.17A.22.22,0,0,1,12.67,8.57Z"/><path class="cls-1" d="M5,7.05a.52.52,0,1,0,0,1,.51.51,0,0,0,.53-.52A.52.52,0,0,0,5,7.05ZM5,8a.36.36,0,1,1,.36-.36A.36.36,0,0,1,5,8Z"/><path class="cls-1" d="M3.28,8.79a.5.5,0,0,0-.52.52.52.52,0,0,0,.52.52.5.5,0,0,0,.52-.52A.52.52,0,0,0,3.28,8.79Zm0,.88a.36.36,0,0,1-.36-.36A.36.36,0,0,1,3.28,9a.36.36,0,0,1,.36.36A.37.37,0,0,1,3.28,9.67Z"/><path class="cls-1" d="M5,8.79a.52.52,0,0,0,0,1,.51.51,0,0,0,.53-.52A.52.52,0,0,0,5,8.79Zm0,.88a.36.36,0,0,1-.35-.36.36.36,0,1,1,.71,0A.36.36,0,0,1,5,9.67Z"/><path class="cls-1" d="M3.28,7.05a.5.5,0,0,0-.52.52.52.52,0,0,0,.52.52.5.5,0,0,0,.52-.52A.52.52,0,0,0,3.28,7.05Zm0,.91a.36.36,0,1,1,0-.72.36.36,0,1,1,0,.72Z"/><path class="cls-3" d="M15.14.25a.25.25,0,0,1-.25.25.25.25,0,0,1-.24-.25A.25.25,0,0,1,14.89,0,.25.25,0,0,1,15.14.25Z"/><path class="cls-3" d="M15.14,6.8a.25.25,0,0,1-.25.25.24.24,0,0,1-.24-.25.25.25,0,0,1,.24-.25A.25.25,0,0,1,15.14,6.8Z"/><path class="cls-1" d="M14.09,2.23a1,1,0,1,0,1.06,1A1.06,1.06,0,0,0,14.09,2.23Zm0,1.9a.85.85,0,0,1-.84-.85.86.86,0,0,1,.84-.86.86.86,0,1,1,0,1.71Z"/><path class="cls-1" d="M9.8,11.37v.7h4.13v-.7Zm4,.52H10v-.36h3.81Z"/><path class="cls-3" d="M10,2.67a.26.26,0,0,1-.26.25.24.24,0,0,1-.24-.25.25.25,0,0,1,.24-.25A.26.26,0,0,1,10,2.67Z"/><path class="cls-3" d="M9.79,14.71a.24.24,0,0,1-.48,0,.24.24,0,1,1,.48,0Z"/><path class="cls-1" d="M6.2,5.67v1H9.28v-1Zm2.94.86H6.39V5.84h.74l.08,0h1a.14.14,0,0,0,.09,0h.79Z"/><path class="cls-2" d="M8.26,5.18V5.7h-1V5.18a.52.52,0,0,1,.52-.52.53.53,0,0,1,.36.13A.51.51,0,0,1,8.26,5.18Z"/><path class="cls-3" d="M7.37,11.61a.25.25,0,0,1-.24.26.26.26,0,0,1-.25-.26.25.25,0,0,1,.25-.24A.24.24,0,0,1,7.37,11.61Z"/><path class="cls-1" d="M1.54,11.37v.7H5.67v-.7Zm4,.52H1.74v-.36h3.8Z"/><path class="cls-3" d="M3.93,4.05a.25.25,0,1,1-.24-.25A.25.25,0,0,1,3.93,4.05Z"/><path class="cls-1" d="M.86,4.49a.69.69,0,1,0,0,1.38.69.69,0,0,0,0-1.38Zm0,1.21a.5.5,0,0,1-.52-.52.52.52,0,0,1,.52-.52.52.52,0,0,1,.52.52A.5.5,0,0,1,.86,5.7Z"/><path class="cls-3" d="M1.38.78A.25.25,0,0,1,1.13,1,.25.25,0,0,1,.88.78.26.26,0,0,1,1.13.52.26.26,0,0,1,1.38.78Z"/><path class="cls-3" d="M1,14a.26.26,0,0,1-.25.26A.26.26,0,0,1,.52,14a.24.24,0,0,1,.25-.24A.24.24,0,0,1,1,14Z"/><path class="cls-3" d="M14.17,7.65v4.6a2.15,2.15,0,0,1-.66,1.58,2.54,2.54,0,0,1-1.64.62,2.22,2.22,0,0,1-2.24-2.22V10.85a1.37,1.37,0,0,1-1.2-1.38V9.11H7.05v.36a1.28,1.28,0,0,1-.41,1,1.39,1.39,0,0,1-.8.4v1.36a2.11,2.11,0,0,1-.66,1.58,2.25,2.25,0,0,1-1.57.66,2.23,2.23,0,0,1-2.23-2.24V7.63A2.12,2.12,0,0,1,3.5,5.51H6.2a.17.17,0,0,1,.16.16v0a.19.19,0,0,1-.16.14H3.5A1.78,1.78,0,0,0,1.74,7.6v4.63a1.9,1.9,0,0,0,1.9,1.86A1.87,1.87,0,0,0,5,13.55a1.92,1.92,0,0,0,.56-1.32V10.65a.17.17,0,0,1,.16-.16,1.11,1.11,0,0,0,.74-.3,1.05,1.05,0,0,0,.31-.74V9a.17.17,0,0,1,.16-.16H8.65A.17.17,0,0,1,8.81,9v.52a1,1,0,0,0,1,1,.19.19,0,0,1,.17.18v1.54a1.91,1.91,0,0,0,1.9,1.9,1.93,1.93,0,0,0,1.35-.56,1.86,1.86,0,0,0,.56-1.34V7.63a1.78,1.78,0,0,0-1.78-1.76H9.36a.11.11,0,0,1-.08,0,.17.17,0,0,1-.09-.14v0a.19.19,0,0,1,.17-.13h2.69A2.11,2.11,0,0,1,14.17,7.65Z"/><path class="cls-3" d="M3.28,8.62a.69.69,0,1,0,0,1.37A.69.69,0,0,0,4,9.31.68.68,0,0,0,3.28,8.62Zm-.36.69A.36.36,0,0,1,3.28,9a.36.36,0,0,1,.36.36.37.37,0,0,1-.36.36A.36.36,0,0,1,2.92,9.31Z"/><path class="cls-3" d="M5,8.62a.69.69,0,1,0,.69.69A.68.68,0,0,0,5,8.62Zm-.35.69a.36.36,0,1,1,.71,0,.36.36,0,1,1-.71,0Z"/><path class="cls-3" d="M3.28,6.89a.69.69,0,1,0,0,1.37A.69.69,0,0,0,4,7.57.67.67,0,0,0,3.28,6.89Zm-.36.71a.36.36,0,0,1,.36-.36.36.36,0,1,1,0,.72A.36.36,0,0,1,2.92,7.6Z"/><path class="cls-3" d="M5,6.89a.69.69,0,1,0,.69.68A.67.67,0,0,0,5,6.89Zm-.35.71A.36.36,0,1,1,5,8,.36.36,0,0,1,4.63,7.6Z"/><path class="cls-3" d="M13.11,7.91a.57.57,0,0,0-.42-.17h-.32V7.41a.59.59,0,0,0-1-.42.58.58,0,0,0-.16.42v.33h-.34a.59.59,0,0,0-.58.57.57.57,0,0,0,.17.42.56.56,0,0,0,.41.16h.34v.34a.59.59,0,0,0,.58.58.62.62,0,0,0,.58-.58V8.89h.32a.57.57,0,0,0,.58-.58A.56.56,0,0,0,13.11,7.91Zm-.44.66h-.5a.17.17,0,0,0-.16.16v.5a.19.19,0,0,1-.06.16.82.82,0,0,1-.16.06.21.21,0,0,1-.22-.22v-.5a.18.18,0,0,0-.18-.16h-.48a.22.22,0,0,1-.18-.06.58.58,0,0,1-.05-.16.22.22,0,0,1,.23-.22h.48A.19.19,0,0,0,11.57,8V7.47a.25.25,0,0,1,0-.17.43.43,0,0,1,.18-.06.23.23,0,0,1,.22.23V8a.18.18,0,0,0,.16.17h.5a.23.23,0,0,1,.16,0,.49.49,0,0,1,.06.17A.22.22,0,0,1,12.67,8.57Z"/><path class="cls-3" d="M5.84,12.07a.16.16,0,0,1-.17.16H1.54a.17.17,0,0,1-.16-.16.18.18,0,0,1,.16-.18H5.67A.18.18,0,0,1,5.84,12.07Z"/><path class="cls-3" d="M14.09,12.07a.15.15,0,0,1-.14.16H9.8a.18.18,0,0,1-.17-.16.18.18,0,0,1,.17-.18H14A.19.19,0,0,1,14.09,12.07Z"/><path class="cls-3" d="M5.84,11.37a.16.16,0,0,1-.17.16H1.54a.16.16,0,0,1,0-.32H5.67A.17.17,0,0,1,5.84,11.37Z"/><path class="cls-3" d="M14.09,11.37a.15.15,0,0,1-.14.16H9.8a.16.16,0,1,1,0-.32H14A.18.18,0,0,1,14.09,11.37Z"/><path class="cls-3" d="M9.49,5.67v1a.23.23,0,0,1-.22.17H6.19A.18.18,0,0,1,6,6.72v-1a.17.17,0,0,1,.16-.16h1a.18.18,0,0,1,.17.16v0a.22.22,0,0,1-.17.14H6.39v.69H9.13V5.84H8.29a.2.2,0,0,1-.17-.14v0a.17.17,0,0,1,.13-.15H9.33a.13.13,0,0,1,.08,0A.16.16,0,0,1,9.49,5.67Z"/><path class="cls-3" d="M8.23,4.68a.78.78,0,0,0-.33-.16.45.45,0,0,0-.16,0,.47.47,0,0,0-.17,0,.67.67,0,0,0-.52.66V5.7a.18.18,0,0,0,.08.14l.08,0h1a.14.14,0,0,0,.09,0,.21.21,0,0,0,.08-.14V5.18A.68.68,0,0,0,8.23,4.68Zm-.49.14A.44.44,0,0,1,8,4.9a.35.35,0,0,1,.1.25v.36H7.38V5.18A.36.36,0,0,1,7.74,4.82Z"/><path class="cls-3" d="M13.73.66a.18.18,0,0,1-.16.17H3.77a.82.82,0,0,0-.6.25.82.82,0,0,0-.25.6.86.86,0,0,0,.85.86H6.49A1.41,1.41,0,0,1,7.9,3.94V4.6a.11.11,0,0,1,0,.08.13.13,0,0,1-.15.14.16.16,0,0,1-.15-.13,0,0,0,0,1,0,0V4A1.08,1.08,0,0,0,6.49,2.92H3.77A1.22,1.22,0,0,1,2.56,1.71,1.23,1.23,0,0,1,3.77.5h9.8A.17.17,0,0,1,13.73.66Z"/><path class="cls-3" d="M14.09,2.07a1.21,1.21,0,0,0,0,2.42,1.23,1.23,0,0,0,1.22-1.21A1.23,1.23,0,0,0,14.09,2.07Zm0,2.06a.85.85,0,0,1-.84-.85.86.86,0,0,1,.84-.86.86.86,0,1,1,0,1.71Z"/><path class="cls-3" d="M.86,4.32a.86.86,0,1,0,.85.86A.86.86,0,0,0,.86,4.32Zm0,1.38a.5.5,0,0,1-.52-.52.52.52,0,0,1,.52-.52.52.52,0,0,1,.52.52A.5.5,0,0,1,.86,5.7Z"/></g></svg>