<svg id="Réteg_1" data-name="Réteg 1" xmlns="http://www.w3.org/2000/svg" viewBox="0 0 13.49 13.18"><defs><style>.cls-1{fill:#fff;}.cls-2{fill:#f6b9c4;}.cls-3{fill:#ec7d8a;}</style></defs><path class="cls-1" d="M.76,10.15a.21.21,0,0,1-.21.21.21.21,0,1,1,0-.42A.21.21,0,0,1,.76,10.15Z"/><path class="cls-1" d="M.62,4.68a.21.21,0,0,1,.42,0,.21.21,0,1,1-.42,0Z"/><path class="cls-1" d="M1,8.59A1,1,0,0,1,1,6.51,1,1,0,1,1,1,8.59Z"/><path class="cls-1" d="M1.07,1.13a.21.21,0,0,1,.42,0,.21.21,0,1,1-.42,0Z"/><path class="cls-1" d="M2.7,6.46a.21.21,0,0,1,.21-.21.21.21,0,1,1,0,.42A.21.21,0,0,1,2.7,6.46Z"/><path class="cls-1" d="M6.54.82A.21.21,0,0,1,7,.82a.21.21,0,1,1-.42,0Z"/><path class="cls-1" d="M10.82.68A.21.21,0,0,1,11,.47a.21.21,0,0,1,.22.21A.22.22,0,0,1,11,.9.21.21,0,0,1,10.82.68Z"/><path class="cls-1" d="M3.86,3.57A.15.15,0,0,1,4,3.43H8a.75.75,0,0,1,.73-.59.7.7,0,0,1,.59.31.7.7,0,0,1,.59-.31.73.73,0,0,1,.73.73A.72.72,0,0,1,9.34,4,.75.75,0,0,1,8,3.71H4A.15.15,0,0,1,3.86,3.57Z"/><path class="cls-1" d="M6.46,6.39a.21.21,0,0,0,0,.42.21.21,0,1,0,0-.42ZM7.65,9.2a.22.22,0,1,0,0,.43.21.21,0,0,0,.21-.21A.21.21,0,0,0,7.65,9.2Zm1.11-4v5H5.64a1.71,1.71,0,0,1-.27.14H9V5.2ZM8,5v0a.15.15,0,0,1-.14.14h.9V5ZM7.65,9.2a.22.22,0,1,0,0,.43.21.21,0,0,0,.21-.21A.21.21,0,0,0,7.65,9.2ZM6.46,6.39a.21.21,0,0,0,0,.42.21.21,0,1,0,0-.42Zm0,0a.21.21,0,0,0,0,.42.21.21,0,1,0,0-.42ZM7.65,9.2a.22.22,0,1,0,0,.43.21.21,0,0,0,.21-.21A.21.21,0,0,0,7.65,9.2Zm1.11-4v5H5.64a1.71,1.71,0,0,1-.27.14H9V5.2ZM8,5v0a.15.15,0,0,1-.14.14h.9V5ZM7.65,9.63a.21.21,0,0,0,.21-.21.21.21,0,0,0-.21-.22.22.22,0,1,0,0,.43ZM6.46,6.81a.21.21,0,1,0,0-.42.21.21,0,0,0,0,.42Zm5.24-4.9H3.77a2,2,0,0,0-2,2V5a.15.15,0,0,0,.14.14h.83l.07,0h1v.6A.15.15,0,0,0,4,5.94h.45v1.2A.58.58,0,0,0,4,7.71v.45a.54.54,0,0,0,.09.31H2.82a.15.15,0,0,0-.14.14,1.88,1.88,0,0,0,.88,1.61H1.47a.15.15,0,0,0-.14.14v1.31a1.52,1.52,0,0,0,1.51,1.51h7.51a1.43,1.43,0,0,0,1.46-1.49V10.48a.12.12,0,0,0,0-.12V2.06A.15.15,0,0,0,11.7,1.91Zm-1.35,11H2.84a1.21,1.21,0,0,1-1.2-1.21v-.28h8.45a.16.16,0,0,0,.14-.15.15.15,0,0,0-.14-.14H1.64v-.59h9.91v1.16A1.21,1.21,0,0,1,10.35,12.9Zm-8.26-9A1.69,1.69,0,0,1,3.77,2.24h7.78V4.92H9.71l-.07,0-.07,0H9l-.07,0-.07,0H8V4.47a.15.15,0,0,0-.14-.14h-5a.15.15,0,0,0-.14.14V4.9H2.09ZM9,5.2h.45v5H9Zm-3.85.74c.09,0,.16-.07.14-.14V5.2H8.76v5H5.64a1.86,1.86,0,0,0,.87-1.61.15.15,0,0,0-.14-.14H5.1a.56.56,0,0,0,.09-.31V7.71A.55.55,0,0,0,5,7.29a.69.69,0,0,0-.28-.15V5.94Zm-.9,2.22V7.71a.32.32,0,0,1,.3-.31.3.3,0,0,1,.22.1.28.28,0,0,1,.09.21v.45a.31.31,0,1,1-.61,0ZM7.65,9.63a.21.21,0,0,0,.21-.21.21.21,0,0,0-.21-.22.22.22,0,1,0,0,.43ZM6.46,6.81a.21.21,0,1,0,0-.42.21.21,0,0,0,0,.42Zm0-.42a.21.21,0,0,0,0,.42.21.21,0,1,0,0-.42ZM7.65,9.2a.22.22,0,1,0,0,.43.21.21,0,0,0,.21-.21A.21.21,0,0,0,7.65,9.2ZM8,5v0a.15.15,0,0,1-.14.14h.9V5Zm.76.16v5H5.64a1.71,1.71,0,0,1-.27.14H9V5.2Zm-1.11,4a.22.22,0,1,0,0,.43.21.21,0,0,0,.21-.21A.21.21,0,0,0,7.65,9.2ZM6.46,6.39a.21.21,0,0,0,0,.42.21.21,0,1,0,0-.42Z"/><path class="cls-1" d="M13.49.9a.9.9,0,1,1-.9-.9A.89.89,0,0,1,13.49.9Z"/><path class="cls-1" d="M13,9a.21.21,0,0,1-.21.21.22.22,0,1,1,0-.43A.21.21,0,0,1,13,9Z"/><g id="_174_Kitchen_Mixer_Stand_" data-name="174, Kitchen, Mixer, Stand,"><path class="cls-1" d="M10.65,3.57A.72.72,0,0,1,9.34,4,.75.75,0,0,1,8,3.71H4a.14.14,0,1,1,0-.28H8a.75.75,0,0,1,.73-.59.7.7,0,0,1,.59.31.7.7,0,0,1,.59-.31A.73.73,0,0,1,10.65,3.57Z"/><path class="cls-1" d="M3.77,2.06A1.84,1.84,0,0,0,1.92,3.9V5H11.7v-3ZM9.71,4.92l-.07,0-.07,0H9l-.07,0-.07,0H8V4.47a.15.15,0,0,0-.14-.14h-5a.15.15,0,0,0-.14.14V4.9H2.09v-1A1.69,1.69,0,0,1,3.77,2.24h7.78V4.92Z"/><polygon class="cls-2" points="5.19 5.04 5.19 5.79 4.59 5.79 4 5.79 4 5.04 5.19 5.04"/><path class="cls-2" d="M9.92,3a.59.59,0,1,1-.59.59A.6.6,0,0,1,9.92,3Z"/><path class="cls-2" d="M8.74,3a.59.59,0,0,1,0,1.18.59.59,0,0,1-.6-.59A.61.61,0,0,1,8.74,3Z"/><polygon class="cls-2" points="7.86 4.45 7.86 5.04 5.19 5.04 4 5.04 2.82 5.04 2.82 4.45 7.86 4.45"/><path class="cls-2" d="M12.59.16a.74.74,0,1,1-.73.74A.74.74,0,0,1,12.59.16Z"/><path class="cls-2" d="M1,6.67a.9.9,0,1,1-.9.9A.9.9,0,0,1,1,6.67Z"/><path class="cls-2" d="M6.37,8.59a1.78,1.78,0,0,1-3.55,0Z"/><path class="cls-1" d="M8.9,5v5.32h.74V5ZM9,10.22v-5h.45v5Z"/><path class="cls-2" d="M11.7,10.36H9.61V5H11.7Z"/><path class="cls-1" d="M1.49,10.36v1.33A1.36,1.36,0,0,0,2.84,13h7.51a1.35,1.35,0,0,0,1.35-1.35V10.36Zm10.06,1.33a1.21,1.21,0,0,1-1.2,1.21H2.84a1.21,1.21,0,0,1-1.2-1.21v-.28h8.45a.16.16,0,0,0,.14-.15.15.15,0,0,0-.14-.14H1.64v-.59h9.91Z"/><path class="cls-3" d="M13,9a.21.21,0,0,1-.21.21.22.22,0,1,1,0-.43A.21.21,0,0,1,13,9Z"/><path class="cls-3" d="M11.25.68A.22.22,0,0,1,11,.9a.21.21,0,0,1-.21-.22A.21.21,0,0,1,11,.47.21.21,0,0,1,11.25.68Z"/><path class="cls-3" d="M7.86,9.42a.21.21,0,0,1-.21.21.22.22,0,1,1,0-.43A.21.21,0,0,1,7.86,9.42Z"/><path class="cls-3" d="M7,.82a.21.21,0,1,1-.42,0A.21.21,0,0,1,7,.82Z"/><path class="cls-3" d="M6.68,6.6a.21.21,0,0,1-.22.21.21.21,0,0,1,0-.42A.21.21,0,0,1,6.68,6.6Z"/><path class="cls-3" d="M3.13,6.46a.21.21,0,0,1-.22.21.21.21,0,1,1,0-.42A.21.21,0,0,1,3.13,6.46Z"/><path class="cls-3" d="M1.49,1.13a.21.21,0,1,1-.42,0,.21.21,0,0,1,.42,0Z"/><path class="cls-3" d="M1,4.68a.21.21,0,1,1-.42,0,.21.21,0,0,1,.42,0Z"/><path class="cls-3" d="M.76,10.15a.21.21,0,0,1-.21.21.21.21,0,1,1,0-.42A.21.21,0,0,1,.76,10.15Z"/><path class="cls-3" d="M11.84,2.06v3a.13.13,0,0,1-.14.15H7.86a.15.15,0,0,1-.14-.14V5a.16.16,0,0,1,.14-.12h3.69V2.24H3.77A1.69,1.69,0,0,0,2.09,3.93v1h.73a.14.14,0,1,1,0,.28h-.9A.15.15,0,0,1,1.78,5V3.9a2,2,0,0,1,2-2H11.7A.15.15,0,0,1,11.84,2.06Z"/><path class="cls-3" d="M11.84,5v5.32a.12.12,0,0,1,0,.12.14.14,0,0,1-.11,0,.15.15,0,0,1-.15-.14V5a.15.15,0,0,1,.15-.14A.15.15,0,0,1,11.84,5Z"/><path class="cls-3" d="M5.33,5V5.8c0,.07,0,.14-.14.14H4a.15.15,0,0,1-.14-.14V5a.14.14,0,0,1,.28,0v.61H5V5a.16.16,0,0,1,.15-.12A.16.16,0,0,1,5.33,5Z"/><path class="cls-3" d="M9.92,2.84a.7.7,0,0,0-.59.31.35.35,0,0,0-.08.13h0a.68.68,0,0,0,0,.56h0A.42.42,0,0,0,9.34,4a.72.72,0,0,0,1.31-.43A.73.73,0,0,0,9.92,2.84ZM9.92,4a.44.44,0,0,1-.45-.45.45.45,0,0,1,.45-.45.45.45,0,0,1,0,.9Z"/><path class="cls-3" d="M9.41,3.29h0a.35.35,0,0,0-.08-.13.7.7,0,0,0-.59-.31A.75.75,0,0,0,8,3.43a.66.66,0,0,0,0,.14.66.66,0,0,0,0,.14A.75.75,0,0,0,9.34,4s.05-.09.07-.14h0a.68.68,0,0,0,0-.56ZM8.74,4a.44.44,0,0,1-.45-.43v0a.45.45,0,0,1,.45-.45.45.45,0,1,1,0,.9Z"/><path class="cls-3" d="M8.29,3.57v0a.13.13,0,0,1-.13.12H4a.14.14,0,1,1,0-.28H8.16A.16.16,0,0,1,8.29,3.57Z"/><path class="cls-3" d="M6.37,8.47H2.82a.15.15,0,0,0-.14.14,1.88,1.88,0,0,0,.88,1.61,1.49,1.49,0,0,0,.24.14,1.9,1.9,0,0,0,.79.17,1.85,1.85,0,0,0,.78-.17,1.71,1.71,0,0,0,.27-.14,1.86,1.86,0,0,0,.87-1.61A.15.15,0,0,0,6.37,8.47ZM4.89,10.22a1.45,1.45,0,0,1-.3,0l-.3,0A1.67,1.67,0,0,1,3,8.75H6.2A1.65,1.65,0,0,1,4.89,10.22Z"/><path class="cls-3" d="M4.74,5.77V7.26c0,.1,0,.14-.15.14a.15.15,0,0,1-.14-.14V5.77a.15.15,0,0,1,.07-.12l.07,0,.07,0A.13.13,0,0,1,4.74,5.77Z"/><path class="cls-3" d="M7.86,4.33h-5a.15.15,0,0,0-.14.14v.59a.15.15,0,0,0,.07.12l.07,0h5A.15.15,0,0,0,8,5.06V4.47A.15.15,0,0,0,7.86,4.33ZM3,4.9V4.59H7.72V4.9Z"/><path class="cls-3" d="M11.7,9.77H10.37a.14.14,0,0,1,0-.28H11.7a.15.15,0,0,1,.14.14A.14.14,0,0,1,11.7,9.77Z"/><path class="cls-3" d="M9.49,10.39v0H9a.16.16,0,0,1-.14.17h.74A.16.16,0,0,1,9.49,10.39Zm0,0v0H9a.16.16,0,0,1-.14.17h.74A.16.16,0,0,1,9.49,10.39Zm2.21-.16H1.47a.15.15,0,0,0-.14.14v1.31a1.52,1.52,0,0,0,1.51,1.51h7.51a1.43,1.43,0,0,0,1.46-1.49V10.36A.14.14,0,0,0,11.7,10.23ZM10.35,12.9H2.84a1.21,1.21,0,0,1-1.2-1.21V10.53h9.91v1.16A1.21,1.21,0,0,1,10.35,12.9Zm-.86-2.51v0H9a.16.16,0,0,1-.14.17h.74A.16.16,0,0,1,9.49,10.39Zm0,0v0H9a.16.16,0,0,1-.14.17h.74A.16.16,0,0,1,9.49,10.39Zm0,0v0H9a.16.16,0,0,1-.14.17h.74A.16.16,0,0,1,9.49,10.39Z"/><path class="cls-3" d="M10.23,11.26a.16.16,0,0,1-.14.15H1.49a.16.16,0,0,1-.14-.15.15.15,0,0,1,.14-.14h8.6A.15.15,0,0,1,10.23,11.26Z"/><path class="cls-3" d="M5,7.29a.69.69,0,0,0-.28-.15l-.15,0-.14,0A.58.58,0,0,0,4,7.71v.45a.54.54,0,0,0,.09.31.47.47,0,0,0,.09.12.61.61,0,0,0,.82,0,.58.58,0,0,0,.1-.12.56.56,0,0,0,.09-.31V7.71A.55.55,0,0,0,5,7.29Zm-.73.87V7.71a.32.32,0,0,1,.3-.31.3.3,0,0,1,.22.1.28.28,0,0,1,.09.21v.45a.31.31,0,1,1-.61,0Z"/><path class="cls-3" d="M9,5v5.32a.16.16,0,0,1-.14.17.15.15,0,0,1-.14-.14V5a.15.15,0,0,1,.07-.12l.07,0,.07,0A.15.15,0,0,1,9,5Z"/><path class="cls-3" d="M9.78,5v5.32a.16.16,0,0,1-.14.17.16.16,0,0,1-.15-.14V5a.14.14,0,0,1,.08-.12l.07,0,.07,0A.15.15,0,0,1,9.78,5Z"/><path class="cls-3" d="M1,6.51A1,1,0,0,0,1,8.59,1,1,0,1,0,1,6.51ZM1,8.28A.74.74,0,0,1,1,6.81a.73.73,0,0,1,.74.74A.74.74,0,0,1,1,8.28Z"/><path class="cls-3" d="M12.59,0a.9.9,0,1,0,.9.9A.89.89,0,0,0,12.59,0Zm0,1.49A.58.58,0,0,1,12,.9a.6.6,0,1,1,1.19,0A.59.59,0,0,1,12.59,1.49Z"/></g></svg>